<svg xmlns="http://www.w3.org/2000/svg" viewBox="0 0 128 128"><title>Sun</title><g id="Sun"><g id="Sun-2" data-name="Sun"><g id="sun-smiling-blush-sun"><path d="M64,2a2.07,2.07,0,0,0-2.07,2.07v12.4a2.07,2.07,0,0,0,4.13,0V4.07A2.07,2.07,0,0,0,64,2" fill="#ffdc47"/><path d="M64,109.47a2.07,2.07,0,0,0-2.07,2.07v12.4a2.07,2.07,0,1,0,4.13,0v-12.4A2.07,2.07,0,0,0,64,109.47" fill="#ffdc47"/><path d="M123.93,61.93h-12.4a2.07,2.07,0,0,0,0,4.13h12.4a2.07,2.07,0,0,0,0-4.13" fill="#ffdc47"/><path d="M18.53,64a2.07,2.07,0,0,0-2.07-2.07H4.07a2.07,2.07,0,0,0,0,4.13h12.4A2.07,2.07,0,0,0,18.53,64" fill="#ffdc47"/><path d="M97.61,32.45a2.06,2.06,0,0,0,1.46-.6L110.93,20A2.07,2.07,0,1,0,108,17.07L96.15,28.93a2.07,2.07,0,0,0,1.46,3.53" fill="#ffdc47"/><path d="M28.93,96.15,17.07,108A2.07,2.07,0,1,0,20,110.93L31.85,99.07a2.07,2.07,0,0,0-2.92-2.92" fill="#ffdc47"/><path d="M99.07,96.15a2.07,2.07,0,0,0-2.92,2.92L108,110.93a2.07,2.07,0,1,0,2.92-2.92Z" fill="#ffdc47"/><path d="M20,17.07A2.07,2.07,0,0,0,17.07,20L28.92,31.85a2.07,2.07,0,1,0,2.92-2.92Z" fill="#ffdc47"/><path d="M105.85,46.24a2.07,2.07,0,0,0,1.9,1.26,2,2,0,0,0,.81-.17l5.71-2.42a2.07,2.07,0,1,0-1.61-3.8l-5.71,2.42a2.06,2.06,0,0,0-1.1,2.71" fill="#ffdc47"/><path d="M22.15,81.76a2.06,2.06,0,0,0-2.71-1.09l-5.71,2.42a2.07,2.07,0,0,0,.81,4,2,2,0,0,0,.81-.17l5.71-2.42a2.07,2.07,0,0,0,1.1-2.71" fill="#ffdc47"/><path d="M114.59,82.21l-5.75-2.32a2.07,2.07,0,0,0-1.55,3.83L113,86a2,2,0,0,0,.77.15,2.07,2.07,0,0,0,.78-4" fill="#ffdc47"/><path d="M13.4,45.79l5.75,2.32a2.07,2.07,0,0,0,1.55-3.83L15,42a2.07,2.07,0,1,0-1.55,3.83" fill="#ffdc47"/><path d="M84.47,106.95a2.07,2.07,0,1,0-3.8,1.61l2.42,5.71a2.07,2.07,0,1,0,3.8-1.61Z" fill="#ffdc47"/><path d="M45.43,22.31a2,2,0,0,0,.8-.17,2.07,2.07,0,0,0,1.1-2.71l-2.42-5.71a2.07,2.07,0,1,0-3.8,1.61l2.42,5.71a2.07,2.07,0,0,0,1.9,1.26" fill="#ffdc47"/><path d="M47,106.16a2.07,2.07,0,0,0-2.69,1.14L42,113a2.07,2.07,0,0,0,1.14,2.69,2,2,0,0,0,.77.15,2.07,2.07,0,0,0,1.92-1.3l2.32-5.75A2.07,2.07,0,0,0,47,106.16" fill="#ffdc47"/><path d="M81.8,22a2.06,2.06,0,0,0,1.92-1.3L86,15a2.07,2.07,0,0,0-3.83-1.55l-2.33,5.75A2.07,2.07,0,0,0,81,21.85a2.1,2.1,0,0,0,.77.15" fill="#ffdc47"/><path d="M103.27,64A39.27,39.27,0,1,1,64,24.73,39.27,39.27,0,0,1,103.27,64" fill="#ffdc47"/><path d="M82.53,29.38a39.26,39.26,0,0,1-43.26,65.1,39.26,39.26,0,1,0,43.26-65.1Z" fill="#f9c903"/></g><g id="sun-smiling-blush-smiling-blush"><path d="M52.53,49.23a6.2,6.2,0,1,1-6.2-6.2,6.2,6.2,0,0,1,6.2,6.2" fill="#4b4143"/><path d="M45,46.7a1.77,1.77,0,1,1-1.77-1.77A1.77,1.77,0,0,1,45,46.7" fill="#fff"/><path d="M87.87,49.23a6.2,6.2,0,1,1-6.2-6.2,6.2,6.2,0,0,1,6.2,6.2" fill="#4b4143"/><path d="M80.17,46.7a1.77,1.77,0,1,1-1.77-1.77,1.77,1.77,0,0,1,1.77,1.77" fill="#fff"/><path d="M80.58,69.13A2.1,2.1,0,0,0,78,70,16.05,16.05,0,0,1,50,70a2.11,2.11,0,0,0-2.62-.87,1.85,1.85,0,0,0-1,1,1.64,1.64,0,0,0,.06,1.37c3.16,6.2,10,10.2,17.53,10.2s14.37-4,17.53-10.2A1.73,1.73,0,0,0,80.58,69.13Z" fill="#4b4143"/><path d="M46,65.8c0,2.74-2.77,5-6.2,5s-6.2-2.22-6.2-5,2.78-5,6.2-5S46,63.06,46,65.8Z" fill="#ff8ca8"/><path d="M94.38,65.8c0,2.74-2.77,5-6.2,5s-6.2-2.22-6.2-5,2.78-5,6.2-5S94.38,63.06,94.38,65.8Z" fill="#ff8ca8"/></g></g></g></svg>